<?xml version="1.0" encoding="utf-8"?>
<!-- Generator: Adobe Illustrator 16.2.1, SVG Export Plug-In . SVG Version: 6.00 Build 0)  -->
<!DOCTYPE svg PUBLIC "-//W3C//DTD SVG 1.1//EN" "http://www.w3.org/Graphics/SVG/1.1/DTD/svg11.dtd">
<svg version="1.1" id="Chef" xmlns="http://www.w3.org/2000/svg" xmlns:xlink="http://www.w3.org/1999/xlink" x="0px" y="0px"
	 width="118px" height="120.333px" viewBox="0 0 118 120.333" enable-background="new 0 0 118 120.333" xml:space="preserve">
<path fill="#376991" d="M99.523,99.69c-10.431,10.431-24.775,16.864-40.636,16.864c-15.87,0-30.205-6.434-40.646-16.864
	C7.819,89.259,1.388,74.905,1.388,59.054c0-15.852,6.432-30.207,16.854-40.637C28.683,7.997,43.018,1.564,58.888,1.554
	c15.86,0.01,30.205,6.442,40.636,16.863c10.421,10.43,16.864,24.785,16.864,40.637C116.388,74.905,109.944,89.259,99.523,99.69"/>
<path fill="#FFFFFF" d="M92.956,93.123c-8.75,8.737-20.772,14.13-34.068,14.13c-13.306,0-25.318-5.393-34.077-14.13
	c-8.727-8.748-14.126-20.779-14.126-34.068c0-13.289,5.399-25.321,14.126-34.069c8.759-8.729,20.771-14.122,34.077-14.131
	c13.296,0.009,25.318,5.403,34.068,14.131c8.726,8.748,14.132,20.78,14.132,34.069C107.088,72.343,101.682,84.375,92.956,93.123"/>
<path fill="#376991" d="M85.197,37.333H44.982c-3.778,0-3.057-1.184-3.057-1.184c0.16-0.663,0.248-1.606,0.248-2.315
	c0-7.092-5.753-12.419-12.847-12.419c-7.098,0-12.842,5.956-12.842,13.049s5.744,12.935,12.842,12.935
	c1.656,0,3.296-0.28,4.828-0.901c0.509-0.204,1.006-0.409,1.516-0.609c0.884-0.342,1.631-0.559,2.619-0.393
	c1.301,0.226,2.043,1.348,2.043,2.659c0,0.761,0,37.13,0,37.13c0,2.467,2.247,6.049,4.717,6.049h40.147
	c2.462,0,6.136-3.582,6.136-6.049V45.141C91.333,42.678,87.659,37.333,85.197,37.333z M29.347,39.936
	c-2.899,0-5.258-2.352-5.258-5.254c0-2.898,2.358-5.251,5.258-5.251c2.896,0,5.248,2.353,5.248,5.251
	C34.595,37.584,32.243,39.936,29.347,39.936z M66.931,84.382c-10.629,0-19.243-8.611-19.243-19.233
	c0-10.625,8.614-19.239,19.243-19.239c6.025,0,11.405,2.776,14.931,7.109l-6.238,6.187c-1.826-2.722-4.952-4.506-8.473-4.506
	c-5.646,0-10.22,4.582-10.22,10.234c0,5.644,4.574,10.225,10.22,10.225c3.398,0,6.396-1.658,8.253-4.204l6.938,5.692
	C78.835,81.338,73.235,84.382,66.931,84.382z"/>
</svg>
