<?xml version="1.0" encoding="utf-8"?>
<!-- Generator: Adobe Illustrator 16.2.1, SVG Export Plug-In . SVG Version: 6.00 Build 0)  -->
<!DOCTYPE svg PUBLIC "-//W3C//DTD SVG 1.1//EN" "http://www.w3.org/Graphics/SVG/1.1/DTD/svg11.dtd">
<svg version="1.1" id="Layer_1" xmlns="http://www.w3.org/2000/svg" xmlns:xlink="http://www.w3.org/1999/xlink" x="0px" y="0px"
	 width="130.067px" height="33.95px" viewBox="0 0 130.067 33.95" enable-background="new 0 0 130.067 33.95" xml:space="preserve">
<g>
	<g>
		<path fill="#FFFFFF" d="M43.598,30.794h-2.929h-0.167v-0.171V18.93v-0.171h0.167h3.32c3.538,0,5.649,2.253,5.649,6.025
			c0,1.925-0.523,3.436-1.552,4.491C47.017,30.354,45.717,30.794,43.598,30.794L43.598,30.794z M41.95,29.428h2.273
			c0.996,0,2.049-0.444,2.747-1.163c0.706-0.741,1.062-1.914,1.062-3.48c0-3.005-1.413-4.66-3.979-4.66H41.95V29.428L41.95,29.428z"
			/>
		<path fill="#FFFFFF" d="M62.857,30.937c-2.199,0-3.739-1.843-3.739-4.479c0-2.604,1.586-4.495,3.77-4.495
			c0.892,0,1.726,0.333,2.416,0.96c0.387,0.373,0.586,0.625,0.943,1.294l0.08,0.146l-0.148,0.081l-0.971,0.537l-0.148,0.083
			l-0.08-0.151c-0.326-0.604-0.467-0.823-0.79-1.104c-0.393-0.35-0.84-0.527-1.332-0.527c-1.37,0-2.289,1.309-2.289,3.256
			c0,1.766,0.971,3.098,2.258,3.098c0.922,0,1.601-0.521,2.135-1.639l0.076-0.163l0.156,0.087l0.986,0.555l0.15,0.081l-0.086,0.15
			c-0.406,0.704-0.606,0.967-1.02,1.336C64.536,30.635,63.739,30.937,62.857,30.937L62.857,30.937z"/>
		<path fill="#FFFFFF" d="M74.518,30.794H74.35h-1.127h-0.17v-0.171v-5.948c0-0.875-0.426-1.3-1.303-1.3
			c-0.719,0-1.566,0.299-2.666,0.938v6.31v0.171h-0.168h-1.113h-0.168v-0.171V18.93v-0.171h0.168h1.129H69.1v0.171v4.049
			l0.133-0.067c1.293-0.677,2.039-0.916,2.848-0.916c1.525,0,2.438,1.096,2.438,2.93v5.698V30.794L74.518,30.794z"/>
		<path fill="#FFFFFF" d="M77.979,30.794h-0.168h-1.113H76.53v-0.171v-8.285v-0.171h0.168h1.113h0.168v0.171v8.285V30.794
			L77.979,30.794z M77.979,20.567h-0.168h-1.098h-0.168v-0.17v-1.343v-0.169h0.168h1.098h0.168v0.169v1.343V20.567L77.979,20.567z"
			/>
		<path fill="#FFFFFF" d="M83.118,30.937c-0.887,0-1.658-0.213-2.42-0.672c-0.463-0.266-0.703-0.462-1.232-0.951l-0.154-0.142
			l0.17-0.122l0.955-0.679l0.115-0.082l0.102,0.101c0.877,0.884,1.586,1.244,2.447,1.244c0.963,0,1.631-0.509,1.631-1.236
			c0-0.525-0.375-0.978-2.223-1.477c-1.238-0.322-1.688-0.52-2.182-0.969c-0.424-0.48-0.65-1.02-0.65-1.531
			c0-1.456,1.223-2.475,2.971-2.475c0.639,0,1.283,0.148,1.918,0.443c0.561,0.281,0.783,0.457,1.199,0.942l0.113,0.13l-0.129,0.11
			l-0.848,0.726l-0.125,0.109l-0.111-0.127c-0.615-0.709-1.203-1-2.031-1c-0.867,0-1.492,0.421-1.492,0.999
			c0,0.516,0.268,0.848,1.736,1.224c1.459,0.377,2.221,0.751,2.717,1.334c0.391,0.479,0.588,0.989,0.588,1.514
			C86.182,29.873,84.92,30.937,83.118,30.937L83.118,30.937z"/>
		<path fill="#FFFFFF" d="M92.854,31.015c-3.057,0-4.883-2.364-4.883-6.323c0-3.681,1.975-6.154,4.914-6.154
			c1.676,0,3.201,0.868,3.982,2.266c0.197,0.366,0.348,0.715,0.533,1.413l0.047,0.174l-0.176,0.035l-1.223,0.252l-0.152,0.034
			l-0.043-0.153c-0.227-0.807-0.369-1.102-0.764-1.581c-0.553-0.672-1.299-1.058-2.047-1.058c-2.082,0-3.48,1.898-3.48,4.724
			c0,3.031,1.33,4.991,3.385,4.991c1.199,0,2.332-0.755,2.756-1.835c0.178-0.444,0.254-0.9,0.254-1.518h-2.727h-0.17V26.11v-1.121
			v-0.17h0.17h4.008h0.168v0.17v5.634v0.171h-0.168h-1.111h-0.17v-0.171v-1.026c-0.385,0.474-0.689,0.703-1.258,0.99
			C94.118,30.871,93.499,31.015,92.854,31.015L92.854,31.015z"/>
		<path fill="#FFFFFF" d="M100.741,30.794h-0.168h-1.127h-0.168v-0.171v-8.285v-0.171h0.168h1.127h0.168v0.171v1.32
			c0.301-0.451,0.529-0.679,0.887-0.964c0.363-0.263,0.74-0.456,1.104-0.565c0.309-0.098,0.627-0.149,0.941-0.149
			c0.115,0,0.23,0,0.381,0.016l0.172,0.02l-0.023,0.174l-0.174,1.231l-0.023,0.16l-0.158-0.016
			c-0.166-0.016-0.285-0.016-0.377-0.016c-1.479,0-2.729,1.55-2.729,3.383v3.691V30.794L100.741,30.794z"/>
		<path fill="#FFFFFF" d="M108.401,30.969h-0.002h-0.051c-2.352-0.085-3.873-1.829-3.873-4.448c0-2.707,1.525-4.525,3.801-4.525
			c2.166,0,3.803,1.932,3.803,4.495C112.079,29.083,110.532,30.969,108.401,30.969L108.401,30.969z M108.307,23.297
			c-1.457,0-2.4,1.24-2.4,3.16c0,1.919,0.951,3.207,2.369,3.207c1.473-0.058,2.336-1.28,2.336-3.271
			C110.612,24.542,109.686,23.297,108.307,23.297L108.307,23.297z"/>
		<path fill="#FFFFFF" d="M116.043,30.952c-1.641,0-2.58-1.086-2.58-2.979v-5.635v-0.171h0.168h1.127h0.168v0.171v5.443
			c0,1.042,0.545,1.74,1.352,1.74c0.711,0,1.496-0.398,2.617-1.328v-5.855v-0.171h0.17h1.111h0.168v0.171v8.27v0.17h-0.168h-1.129
			h-0.168v-0.17v-0.962C117.747,30.513,116.793,30.952,116.043,30.952L116.043,30.952z"/>
		<path fill="#FFFFFF" d="M123.85,33.95h-0.168h-1.129h-0.168v-0.169V22.339v-0.172h0.168h1.129h0.168v0.172v0.683
			c0.826-0.683,1.721-1.044,2.604-1.044c2.162,0,3.613,1.838,3.613,4.575c0,2.558-1.514,4.416-3.6,4.416
			c-0.912,0-1.771-0.348-2.617-1.058v3.87V33.95L123.85,33.95z M123.834,28.478c0.9,0.748,1.717,1.108,2.492,1.108
			c1.455,0,2.291-1.186,2.291-3.254c0-1.807-0.92-3.019-2.291-3.019c-0.754,0-1.57,0.372-2.492,1.14V28.478L123.834,28.478z"/>
		<path fill="#FFFFFF" d="M53.158,30.96c-1.496,0-2.541-1.016-2.541-2.467c0-0.633,0.293-1.333,0.771-1.83
			c0.349-0.353,0.945-0.708,1.481-0.884c0.665-0.238,1.589-0.479,2.748-0.715c0.098-0.024,0.194-0.041,0.28-0.055L55.95,25
			l0.198-0.045V24.59c0-0.785-0.618-1.355-1.47-1.355c-0.812,0-1.635,0.403-2.753,1.349l-0.096,0.08l-0.019,0.017l-0.019-0.017
			l-0.094-0.081l-0.814-0.694l-0.119-0.102l-0.024-0.02l0.021-0.022l0.108-0.114c0.653-0.69,0.974-0.922,1.719-1.24
			c0.633-0.278,1.291-0.426,1.902-0.426c0.93,0,1.699,0.283,2.284,0.839c0.627,0.599,0.838,1.186,0.838,2.324v3.49
			c0,0.62,0.098,1.438,0.229,1.946l0.05,0.186l0.008,0.036H57.86h-0.188h-1.144h-0.117H56.39l-0.006-0.022l-0.027-0.114
			c-0.098-0.411-0.15-0.724-0.182-1.029c-0.5,0.486-0.83,0.705-1.489,0.994C54.118,30.847,53.619,30.96,53.158,30.96L53.158,30.96z
			 M56.133,26.152c-0.089,0.019-0.2,0.046-0.33,0.078c-1.921,0.434-2.771,0.795-3.245,1.38c-0.227,0.27-0.337,0.574-0.337,0.928
			c0,0.652,0.498,1.073,1.266,1.073c0.72,0,1.586-0.37,2.646-1.131V26.152L56.133,26.152z"/>
	</g>
	<g>
		<polygon fill="#C4C5C7" points="33.28,18.743 28.896,18.743 28.896,26.289 28.896,30.673 33.284,30.673 		"/>
		<polygon fill="#B1B4B5" points="21.629,11.596 17.246,15.979 21.629,15.979 33.284,15.979 33.284,11.596 		"/>
		<polygon fill="#FFFFFF" points="17.246,15.979 17.246,26.289 17.246,26.292 21.629,30.673 21.629,26.289 21.629,15.979 
			21.629,11.596 		"/>
		<polygon fill="#F2F2F2" points="28.896,26.289 17.246,26.289 17.246,26.292 21.629,30.673 33.284,30.673 		"/>
	</g>
	<g>
		<polygon fill="#C4C5C7" points="1.217,13.196 5.601,13.196 5.601,5.65 5.601,1.267 1.212,1.267 		"/>
		<polygon fill="#B1B4B5" points="12.867,20.343 17.251,15.961 12.867,15.961 1.212,15.961 1.212,20.343 		"/>
		<polygon fill="#FFFFFF" points="17.251,15.961 17.251,5.65 17.251,5.647 12.867,1.267 12.867,5.65 12.867,15.961 12.867,20.343 		
			"/>
		<polygon fill="#F2F2F2" points="5.601,5.65 17.251,5.65 17.251,5.647 12.867,1.267 1.212,1.267 		"/>
	</g>
</g>
</svg>
