<?xml version="1.0" encoding="utf-8"?>
<!-- Generator: Adobe Illustrator 16.2.1, SVG Export Plug-In . SVG Version: 6.00 Build 0)  -->
<!DOCTYPE svg PUBLIC "-//W3C//DTD SVG 1.1//EN" "http://www.w3.org/Graphics/SVG/1.1/DTD/svg11.dtd">
<svg version="1.1" xmlns="http://www.w3.org/2000/svg" xmlns:xlink="http://www.w3.org/1999/xlink" x="0px" y="0px" width="276px"
	 height="83px" viewBox="0 0 276 83" enable-background="new 0 0 276 83" xml:space="preserve">
<g id="base">
	<path fill="#2765A3" d="M76.013,12.458c-0.018-0.066-0.04-0.141-0.065-0.219c-0.086-0.389-0.136-0.596-0.136-0.596
		c-0.139-0.52-0.344-1.011-0.606-1.466c-0.683-1.181-1.749-2.035-3.042-2.609c-0.353-0.157-0.717-0.325-1.089-0.407
		C39.517,0.55,11.503,7.362,11.503,7.362c-0.519,0.138-1.011,0.343-1.465,0.605c-0.916,0.53-1.679,1.293-2.209,2.209l0,0
		c-0.263,0.455-0.468,0.946-0.606,1.466c0,0-0.068,0.282-0.184,0.814l-0.018,0.001c-2.196,10.486-2.91,20.578-2.885,29.384
		c-0.024,8.802,0.689,18.89,2.885,29.372c0.018,0.065,0.04,0.14,0.065,0.218c0.086,0.39,0.136,0.598,0.136,0.598
		c0.138,0.519,0.343,1.011,0.606,1.465c0.683,1.182,1.75,2.035,3.042,2.609c0.353,0.157,0.716,0.325,1.089,0.407
		c31.557,6.61,59.571-0.202,59.571-0.202c0.519-0.138,1.011-0.343,1.465-0.605c0.916-0.529,1.68-1.293,2.209-2.209l0,0
		c0.263-0.454,0.468-0.946,0.606-1.465c0,0,0.068-0.282,0.183-0.814l0.019-0.001c2.195-10.483,2.909-20.573,2.885-29.378
		C78.922,33.031,78.208,22.941,76.013,12.458z"/>
</g>
<g id="logotype">
	<g>
		<path fill="#FFFFFF" d="M114.592,64.465c-8.331,0-14.351-7.631-14.351-19.042c0-11.832,6.09-19.042,14.001-19.042
			c3.71,0,6.371,1.26,8.891,4.2V12.869h8.541v42.354c0,1.751,0.14,4.621,0.42,8.541h-6.721l-0.91-3.92
			C121.873,62.994,118.723,64.465,114.592,64.465z M123.203,36.602c-2.24-2.03-4.131-3.081-6.511-3.081
			c-4.69,0-7.701,4.201-7.701,11.901c0,7.63,2.94,11.761,7.771,11.761c2.38,0,4.271-1.051,6.441-3.15V36.602z"/>
		<path fill="#FFFFFF" d="M137.55,55.573c0-2.591,1.89-5.11,5.461-6.931c-3.36-2.03-5.111-5.32-5.111-9.591
			c0-7.491,5.601-12.742,13.932-12.742c3.5,0,6.371,0.98,9.171,3.081c1.75-2.311,3.99-3.5,6.721-3.5c0.42,0,0.84,0,1.26,0.07v6.441
			c-0.63-0.07-1.19-0.14-1.68-0.14c-1.19,0-2.17,0.21-3.221,0.91c1.12,1.61,1.68,3.78,1.68,6.581c0,7.071-5.18,11.692-13.721,11.692
			c-1.54,0-2.871-0.141-3.991-0.42c-1.61,0.629-2.38,1.47-2.38,2.449c0,2.451,3.36,2.24,9.661,2.73
			c9.451,0.7,13.441,2.521,13.441,9.521c0,7.211-5.951,11.341-17.222,11.341c-10.291,0-15.542-3.22-15.542-9.171
			c0-3.43,2.03-5.32,6.371-6.721C139.09,59.563,137.55,58.094,137.55,55.573z M144.271,66.845c0,2.38,2.66,4.06,7.141,4.06
			c6.091,0,9.521-1.959,9.521-4.55c0-2.03-1.61-2.8-4.901-2.94l-8.051-0.42C145.461,64.184,144.271,65.305,144.271,66.845z
			 M152.042,44.862c3.57,0,5.951-2.311,5.951-5.881s-2.45-6.021-6.161-6.021c-3.36,0-5.741,2.38-5.741,6.161
			C146.091,42.762,148.331,44.862,152.042,44.862z"/>
		<path fill="#FFFFFF" d="M174.369,13.219h4.41v50.545h-4.41V13.219z"/>
		<path fill="#FFFFFF" d="M207.13,58.934c-3.99,3.711-7.98,5.531-12.461,5.531c-6.021,0-9.871-4.131-9.871-9.802
			c0-8.471,7.071-12.251,22.402-14.981v-3.57c0-3.57-3.011-6.021-8.051-6.021c-3.99,0-6.931,1.96-9.101,5.88l-3.361-1.96
			c2.871-5.041,6.721-7.491,13.021-7.491c6.931,0,11.762,4.13,11.762,9.591v22.752c0,0.91,0.21,2.591,0.63,4.9h-4.271
			C207.48,62.084,207.2,60.474,207.13,58.934z M207.13,43.182c-12.321,2.73-17.991,5.041-17.991,11.271
			c0,4.061,2.311,6.511,6.09,6.511c3.99,0,7.631-2.171,11.901-6.511V43.182z"/>
		<path fill="#FFFFFF" d="M216.997,58.443V13.219h4.341v18.692h0.35c3.36-3.64,6.791-5.39,10.991-5.39
			c7.491,0,13.092,6.791,13.092,18.902c0,12.111-5.601,18.972-13.092,18.972c-4.2,0-7.631-1.75-10.991-5.391h-0.35l-1.12,4.76h-3.5
			C216.997,62.154,216.997,60.404,216.997,58.443z M232.049,60.824c5.881,0,9.381-5.391,9.381-15.402
			c0-10.081-3.57-15.472-9.381-15.472c-3.71,0-7.141,2.31-10.711,6.931v17.082C224.838,58.584,228.129,60.824,232.049,60.824z"/>
		<path fill="#FFFFFF" d="M261.378,60.964c4.551,0,7.561-2.87,7.561-6.721c0-4.411-3.43-5.391-9.451-7.631
			c-7.42-2.73-11.271-4.831-11.271-10.431s4.55-9.731,11.831-9.731c4.761,0,8.961,2.311,12.182,6.721l-3.081,2.24
			c-2.8-3.71-5.811-5.46-9.871-5.46c-3.99,0-6.58,2.45-6.58,6.021c0,3.92,3.57,4.831,9.661,7.141
			c7.28,2.73,10.991,4.97,10.991,10.781c0,6.092-4.901,10.502-12.462,10.502c-5.74,0-10.15-2.311-13.791-7.211l3.22-2.59
			C253.467,58.793,257.107,60.964,261.378,60.964z"/>
	</g>
</g>
<g id="chimneys">
	<g id="chimney_1_4_">
		<polyline id="chimney_outline_12_" fill="#FFFFFF" stroke="#2665A3" stroke-miterlimit="10" points="52.734,39.734 52.734,28.209 
			50.887,27.256 46.093,28.56 46.093,38.655 		"/>
		<g>
			<defs>
				<polyline id="chimney_clipping_path_12_" points="52.734,39.734 52.734,28.209 50.887,27.256 46.093,28.56 46.093,38.655 				
					"/>
			</defs>
			<clipPath id="chimney_clipping_path_1_">
				<use xlink:href="#chimney_clipping_path_12_"  overflow="visible"/>
			</clipPath>
			<polygon clip-path="url(#chimney_clipping_path_1_)" fill="#2665A3" points="47.139,37.99 47.121,29.396 50.887,28.485 
				50.887,38.778 49.131,37.744 			"/>
		</g>
	</g>
	<g id="chimney_1_1_">
		<polyline id="chimney_outline_7_" fill="#FFFFFF" stroke="#2665A3" stroke-miterlimit="10" points="61.042,44.439 61.042,32.914 
			59.194,31.962 54.401,33.264 54.401,43.36 		"/>
		<g>
			<defs>
				<polyline id="chimney_clipping_path_7_" points="61.042,44.439 61.042,32.914 59.194,31.962 54.401,33.264 54.401,43.36 				"/>
			</defs>
			<clipPath id="chimney_clipping_path_2_">
				<use xlink:href="#chimney_clipping_path_7_"  overflow="visible"/>
			</clipPath>
			<polygon clip-path="url(#chimney_clipping_path_2_)" fill="#2665A3" points="55.446,42.696 55.428,34.102 59.194,33.191 
				59.194,43.484 57.439,42.449 			"/>
		</g>
	</g>
</g>
<g id="factory_base">
	<polyline fill="#FFFFFF" stroke="#2665A3" stroke-miterlimit="10" points="30.404,39.163 24.517,36.228 15.854,46.977 
		15.854,46.977 15.854,58.702 65.571,58.702 65.571,45.837 50.264,35.534 45.008,37.092 36.659,31.92 28.015,42.688 	"/>
	<polyline fill="#2665A3" points="32.585,40.765 33.044,41.458 17.867,46.472 24.517,38.165 24.517,43.328 32.537,40.87 	"/>
	<polygon fill="#2665A3" points="29.661,42.575 36.564,34.053 36.394,39.373 44.686,36.731 45.156,37.441 	"/>
	<line id="apex_3_" fill="#FFFFFF" stroke="#2665A3" stroke-miterlimit="10" x1="50.264" y1="35.534" x2="50.264" y2="58.702"/>
	<polygon id="innner_outline_3_" fill="#2665A3" stroke="#FFFFFF" stroke-miterlimit="10" points="16.543,47.557 49.545,36.541 
		49.545,57.685 16.543,57.685 	"/>
</g>
<g id="window">
	<polygon id="window_border_2_" fill="#FFFFFF" points="19.399,50.068 19.399,55.071 45.677,53.941 45.677,42.46 	"/>
	<g>
		<defs>
			<polygon id="window_clipping_path_2_" points="17.283,49.592 17.283,56.209 48.361,55.106 48.361,40.444 			"/>
		</defs>
		<clipPath id="window_clipping_path_1_">
			<use xlink:href="#window_clipping_path_2_"  overflow="visible"/>
		</clipPath>
	</g>
</g>
<g id="plumes">
	<g id="Left_plumes_2_">
		<g id="plume_1_11_">
			<polygon id="chimney_outline_16_" fill="#FFFFFF" stroke="#2665A3" stroke-miterlimit="10" points="58.017,19.327 58.017,16.9 
				55.744,15.438 52.646,16.598 52.646,20.576 55.754,21.074 			"/>
			<g>
				<defs>
					<polyline id="chimney_clipping_path_16_" points="58.017,18.891 58.017,16.9 55.744,15.438 52.646,16.598 52.646,20.15 					
						"/>
				</defs>
				<clipPath id="chimney_clipping_path_3_">
					<use xlink:href="#chimney_clipping_path_16_"  overflow="visible"/>
				</clipPath>
				<polygon clip-path="url(#chimney_clipping_path_3_)" fill="#2665A3" points="53.677,19.812 53.677,17.293 55.568,16.536 
					55.568,19.332 				"/>
			</g>
		</g>
		<g id="plume_1_10_">
			<polygon id="chimney_outline_15_" fill="#FFFFFF" stroke="#2665A3" stroke-miterlimit="10" points="53.143,24.563 53.143,22.137 
				50.871,20.676 47.774,21.835 47.774,25.813 50.88,26.31 			"/>
			<g>
				<defs>
					<polyline id="chimney_clipping_path_15_" points="53.143,24.128 53.143,22.137 50.871,20.676 47.774,21.835 47.774,25.388 
											"/>
				</defs>
				<clipPath id="chimney_clipping_path_4_">
					<use xlink:href="#chimney_clipping_path_15_"  overflow="visible"/>
				</clipPath>
				<polygon clip-path="url(#chimney_clipping_path_4_)" fill="#2665A3" points="48.804,25.049 48.804,22.53 50.695,21.773 
					50.695,24.568 				"/>
			</g>
		</g>
	</g>
	<g id="right_plumes_2_">
		<g id="plume_1_9_">
			<polygon id="chimney_outline_14_" fill="#FFFFFF" stroke="#2665A3" stroke-miterlimit="10" points="66.709,23.927 66.709,21.501 
				64.436,20.04 61.34,21.199 61.34,25.177 64.446,25.675 			"/>
			<g>
				<defs>
					<polyline id="chimney_clipping_path_14_" points="66.709,23.492 66.709,21.501 64.436,20.04 61.34,21.199 61.34,24.752 					
						"/>
				</defs>
				<clipPath id="chimney_clipping_path_5_">
					<use xlink:href="#chimney_clipping_path_14_"  overflow="visible"/>
				</clipPath>
				<polygon clip-path="url(#chimney_clipping_path_5_)" fill="#2665A3" points="62.37,24.413 62.37,21.894 64.261,21.137 
					64.261,23.933 				"/>
			</g>
		</g>
		<g id="plume_1_8_">
			<polygon id="chimney_outline_13_" fill="#FFFFFF" stroke="#2665A3" stroke-miterlimit="10" points="61.836,29.165 61.836,26.739 
				59.562,25.277 56.467,26.437 56.467,30.415 59.574,30.912 			"/>
			<g>
				<defs>
					<polyline id="chimney_clipping_path_13_" points="61.836,28.73 61.836,26.739 59.562,25.277 56.467,26.437 56.467,29.989 					
						"/>
				</defs>
				<clipPath id="chimney_clipping_path_6_">
					<use xlink:href="#chimney_clipping_path_13_"  overflow="visible"/>
				</clipPath>
				<polygon clip-path="url(#chimney_clipping_path_6_)" fill="#2665A3" points="57.498,29.65 57.498,27.132 59.388,26.374 
					59.388,29.169 				"/>
			</g>
		</g>
	</g>
</g>
</svg>
