<?xml version="1.0" encoding="utf-8"?>
<!-- Generator: Adobe Illustrator 16.2.1, SVG Export Plug-In . SVG Version: 6.00 Build 0)  -->
<!DOCTYPE svg PUBLIC "-//W3C//DTD SVG 1.1//EN" "http://www.w3.org/Graphics/SVG/1.1/DTD/svg11.dtd">
<svg version="1.1" id="Layer_1" xmlns="http://www.w3.org/2000/svg" xmlns:xlink="http://www.w3.org/1999/xlink" x="0px" y="0px"
	 width="20.603px" height="15.839px" viewBox="0 0 20.603 15.839" enable-background="new 0 0 20.603 15.839" xml:space="preserve">
<path fill="#FFFFFF" d="M20.502,8.395c0.035,0.011,0.055,0.048,0.045,0.083c-0.01,0.028-0.035,0.047-0.062,0.047
	c-0.008,0-0.014,0-0.021-0.002c-1.74-0.532-3.891-0.605-4.607-0.63c-0.555,1.218-1.627,1.757-3.314,2.009v0.001
	c-0.207,0.03-0.424,0.058-0.648,0.081c0.67,0.422,0.861,0.951,0.861,2.379c0,1.429-0.02,1.621-0.016,1.949
	c0.008,0.539,0.799,0.799,0.77,0.972c-0.031,0.173-0.662,0.146-0.957,0.043c-0.838-0.293-0.754-0.989-0.754-0.989l-0.027-1.91
	c0,0,0.057-1.029-0.326-1.029v3.129c0,0.68,0.48,0.887,0.48,1.138c0,0.433-0.873-0.041-1.139-0.312
	c-0.408-0.409-0.361-1.279-0.354-1.965c0.01-0.664-0.006-2.117-0.006-2.117l-0.275,0.006c0,0,0.113,3.173-0.146,3.75
	c-0.336,0.742-1.35,0.998-1.35,0.658c0-0.227,0.248-0.153,0.387-0.664c0.119-0.433,0.078-3.666,0.078-3.666
	s-0.324,0.191-0.324,0.798c0,0.276-0.008,1.86-0.008,2.331c0,0.594-0.842,0.931-1.246,0.931c-0.205,0-0.461-0.01-0.461-0.119
	c0-0.274,0.77-0.435,0.77-1.005c0-0.495-0.01-1.768-0.01-1.768s-0.389,0.066-0.941,0.066c-1.396,0-1.84-0.89-2.049-1.389
	c-0.273-0.648-0.629-0.954-1.004-1.198C3.613,9.853,3.561,9.677,3.828,9.625c1.236-0.231,1.553,1.402,2.377,1.663
	c0.59,0.186,1.346,0.105,1.723-0.139c0.049-0.5,0.41-0.932,0.709-1.158C8.619,9.99,8.6,9.988,8.58,9.986
	C6.516,9.777,5.287,9.049,4.648,7.889C2.453,7.942,1.207,8.253,0.293,8.482C0.229,8.499,0.162,8.515,0.1,8.531
	C0.094,8.532,0.088,8.533,0.084,8.533c-0.031,0-0.057-0.02-0.064-0.051C0.01,8.447,0.033,8.41,0.068,8.401
	C0.129,8.385,0.195,8.37,0.262,8.354C1.172,8.125,2.41,7.815,4.58,7.757C4.52,7.637,4.465,7.514,4.416,7.385
	C3.574,7.378,0.975,7.499,0.084,7.718C0.078,7.721,0.072,7.721,0.068,7.721c-0.031,0-0.059-0.021-0.066-0.051
	c-0.008-0.036,0.014-0.072,0.049-0.082c0.883-0.217,3.42-0.338,4.318-0.336C4.168,6.658,4.078,5.977,4.078,5.215
	c0-1.351,0.42-1.859,0.986-2.581c-0.434-1.54,0.154-2.592,0.154-2.592s0.908-0.188,2.625,1.041c0.932-0.397,3.412-0.433,4.588-0.088
	c0.721-0.478,2.039-1.152,2.57-0.963c0.145,0.232,0.455,0.907,0.189,2.392c0.18,0.326,1.119,1.02,1.121,2.98
	c-0.014,0.723-0.09,1.334-0.229,1.85c2.238-0.018,3.555,0.167,4.463,0.333c0.035,0.009,0.061,0.042,0.055,0.079
	c-0.008,0.031-0.035,0.055-0.066,0.055c-0.004,0-0.01,0-0.012-0.002c-0.908-0.167-2.225-0.352-4.479-0.33
	c-0.039,0.131-0.084,0.254-0.133,0.375C16.68,7.789,18.787,7.871,20.502,8.395z"/>
</svg>
