<?xml version="1.0" encoding="utf-8"?>
<!-- Generator: Adobe Illustrator 16.2.1, SVG Export Plug-In . SVG Version: 6.00 Build 0)  -->
<!DOCTYPE svg PUBLIC "-//W3C//DTD SVG 1.1//EN" "http://www.w3.org/Graphics/SVG/1.1/DTD/svg11.dtd">
<svg version="1.1" id="Layer_2" xmlns="http://www.w3.org/2000/svg" xmlns:xlink="http://www.w3.org/1999/xlink" x="0px" y="0px"
	 width="23.988px" height="24.497px" viewBox="0 0 23.988 24.497" enable-background="new 0 0 23.988 24.497" xml:space="preserve">
<path fill="#376991" d="M20.471,20.729c-2.176,2.176-5.168,3.518-8.477,3.518c-3.311,0-6.301-1.342-8.479-3.518
	C1.342,18.554,0,15.56,0,12.253s1.342-6.301,3.516-8.477c2.178-2.174,5.168-3.516,8.479-3.518c3.309,0.002,6.301,1.344,8.477,3.518
	c2.174,2.176,3.518,5.17,3.518,8.477S22.645,18.554,20.471,20.729"/>
<path fill="#FFFFFF" d="M19.127,19.386c-1.832,1.83-4.349,2.959-7.133,2.959c-2.786,0-5.301-1.129-7.135-2.959
	c-1.828-1.831-2.957-4.351-2.957-7.133S3.031,6.951,4.859,5.12c1.834-1.828,4.349-2.957,7.135-2.959
	c2.784,0.002,5.301,1.131,7.133,2.959c1.828,1.831,2.959,4.351,2.959,7.133S20.955,17.555,19.127,19.386"/>
<polygon fill="none" stroke="#376991" stroke-width="0.8" stroke-linecap="round" stroke-linejoin="round" stroke-miterlimit="10" points="
	11.939,20.735 3.938,9.146 6.38,6.609 11.939,6.039 17.499,6.609 19.941,9.146 "/>
<polygon fill="none" stroke="#376991" stroke-width="0.8" stroke-linecap="round" stroke-linejoin="bevel" stroke-miterlimit="10" points="
	11.939,20.735 8.476,10.755 11.939,6.039 15.403,10.755 "/>
<polyline fill="none" stroke="#376991" stroke-width="0.8" stroke-linecap="round" stroke-linejoin="round" stroke-miterlimit="10" points="
	3.938,9.146 8.476,10.755 11.939,10.896 15.403,10.755 19.941,9.146 "/>
<line fill="none" stroke="#376991" stroke-width="0.8" stroke-linecap="round" stroke-linejoin="round" stroke-miterlimit="10" x1="15.403" y1="10.755" x2="17.499" y2="6.609"/>
<line fill="none" stroke="#376991" stroke-width="0.8" stroke-linecap="round" stroke-linejoin="round" stroke-miterlimit="10" x1="8.476" y1="10.755" x2="6.38" y2="6.609"/>
</svg>
