<?xml version="1.0" encoding="utf-8"?>
<!-- Generator: Adobe Illustrator 16.2.1, SVG Export Plug-In . SVG Version: 6.00 Build 0)  -->
<!DOCTYPE svg PUBLIC "-//W3C//DTD SVG 1.1//EN" "http://www.w3.org/Graphics/SVG/1.1/DTD/svg11.dtd">
<svg version="1.1" id="Layer_1" xmlns="http://www.w3.org/2000/svg" xmlns:xlink="http://www.w3.org/1999/xlink" x="0px" y="0px"
	 width="15.098px" height="12.271px" viewBox="0 0 15.098 12.271" enable-background="new 0 0 15.098 12.271" xml:space="preserve">
<path fill="#FFFFFF" d="M13.553,3.057c0.006,0.133,0.008,0.266,0.008,0.4c0,4.094-3.115,8.814-8.812,8.814
	c-1.75,0-3.377-0.512-4.748-1.393c0.242,0.029,0.488,0.043,0.738,0.043c1.451,0,2.787-0.494,3.848-1.326
	c-1.355-0.023-2.5-0.92-2.895-2.15c0.189,0.037,0.385,0.057,0.584,0.057c0.281,0,0.555-0.039,0.816-0.109
	C1.674,7.107,0.605,5.855,0.605,4.355c0-0.016,0-0.027,0-0.039c0.418,0.23,0.896,0.371,1.404,0.387
	C1.178,4.146,0.631,3.199,0.631,2.125c0-0.568,0.152-1.1,0.42-1.559c1.527,1.875,3.811,3.107,6.385,3.238
	c-0.053-0.227-0.08-0.465-0.08-0.707C7.355,1.387,8.742,0,10.453,0c0.891,0,1.695,0.377,2.26,0.979
	c0.707-0.139,1.369-0.396,1.969-0.752c-0.232,0.723-0.723,1.33-1.363,1.713c0.627-0.072,1.225-0.24,1.779-0.486
	C14.682,2.074,14.158,2.619,13.553,3.057z"/>
</svg>
