<?xml version="1.0" encoding="utf-8"?>
<!-- Generator: Adobe Illustrator 16.2.1, SVG Export Plug-In . SVG Version: 6.00 Build 0)  -->
<!DOCTYPE svg PUBLIC "-//W3C//DTD SVG 1.1//EN" "http://www.w3.org/Graphics/SVG/1.1/DTD/svg11.dtd">
<svg version="1.1" id="Wordpress" xmlns="http://www.w3.org/2000/svg" xmlns:xlink="http://www.w3.org/1999/xlink" x="0px" y="0px"
	 width="23.988px" height="24.121px" viewBox="0 0 23.988 24.121" enable-background="new 0 0 23.988 24.121" xml:space="preserve">
<path fill="#FFFFFF" d="M20.018,20.15c-2.06,2.06-4.892,3.329-8.023,3.329c-3.134,0-5.964-1.27-8.025-3.329
	c-2.058-2.06-3.327-4.894-3.327-8.023s1.27-5.964,3.327-8.023C6.03,2.046,8.86,0.776,11.994,0.774
	c3.132,0.002,5.964,1.271,8.023,3.329c2.058,2.06,3.329,4.894,3.329,8.023S22.075,18.091,20.018,20.15"/>
<path fill="#376991" d="M20.471,20.604c-2.176,2.176-5.168,3.518-8.477,3.518c-3.311,0-6.301-1.342-8.479-3.518
	C1.342,18.428,0,15.434,0,12.127S1.342,5.826,3.516,3.65c2.178-2.174,5.168-3.516,8.479-3.518c3.309,0.002,6.301,1.344,8.477,3.518
	c2.174,2.176,3.518,5.17,3.518,8.477S22.645,18.428,20.471,20.604 M1.978,12.127c0,3.967,2.303,7.392,5.646,9.016L2.847,8.05
	C2.29,9.297,1.978,10.675,1.978,12.127 M12.17,13.001l-3.006,8.735c0.898,0.263,1.847,0.407,2.83,0.407
	c1.167,0,2.287-0.201,3.324-0.567c-0.025-0.045-0.05-0.089-0.07-0.139L12.17,13.001z M20.783,7.321
	c0.042,0.318,0.068,0.661,0.068,1.03c0,1.018-0.19,2.157-0.761,3.587l-3.061,8.846c2.978-1.737,4.98-4.961,4.98-8.657
	C22.011,10.385,21.564,8.747,20.783,7.321 M18.757,11.623c0-1.24-0.446-2.098-0.827-2.763c-0.508-0.827-0.983-1.525-0.983-2.35
	c0-0.922,0.698-1.777,1.681-1.777c0.046,0,0.087,0.004,0.13,0.008c-1.78-1.634-4.153-2.629-6.763-2.629
	c-3.5,0-6.577,1.795-8.368,4.515c0.236,0.005,0.457,0.011,0.645,0.011c1.047,0,2.669-0.127,2.669-0.127
	c0.54-0.032,0.603,0.761,0.062,0.824c0,0-0.54,0.064-1.144,0.099L9.506,18.28l2.19-6.572l-1.561-4.274
	c-0.54-0.034-1.05-0.099-1.05-0.099c-0.54-0.031-0.478-0.856,0.063-0.824c0,0,1.653,0.127,2.638,0.127
	c1.049,0,2.67-0.127,2.67-0.127c0.54-0.032,0.604,0.761,0.063,0.824c0,0-0.543,0.064-1.146,0.099l3.621,10.765l0.997-3.339
	C18.502,13.558,18.757,12.479,18.757,11.623"/>
</svg>
