<svg xmlns="http://www.w3.org/2000/svg" xmlns:xlink="http://www.w3.org/1999/xlink" version="1.1" x="0px" y="0px" width="272px" height="76.349px" viewBox="0 0 272 76.349" enable-background="new 0 0 272 76.349" xml:space="preserve"><style>.style0{clip-path:	url(#crop_area_2_);}.style1{stroke:	#E7F0C5;stroke-miterlimit:	10;fill:	none;}.style10{stroke:	#4C62AD;stroke-width:	1.4;stroke-miterlimit:	10;fill:	none;}.style11{clip-path:	url(#window_clipping_path_3_);fill:	#2765A3;}.style12{stroke:	#2765A3;stroke-width:	0.4;stroke-miterlimit:	10;fill:	none;}.style13{clip-path:	url(#chimney_clipping_path_10_);fill:	#2765A3;}.style14{clip-path:	url(#chimney_clipping_path_17_);fill:	#2765A3;}.style15{clip-path:	url(#chimney_clipping_path_18_);fill:	#2765A3;}.style16{clip-path:	url(#chimney_clipping_path_19_);fill:	#2765A3;}.style17{stroke:	#2765A3;stroke-width:	0.5;stroke-miterlimit:	10;fill:	#FFFFFF;}.style18{stroke:	#2765A3;stroke-width:	0.5;stroke-miterlimit:	10;fill:	none;}.style19{stroke:	#376992;stroke-miterlimit:	10;fill:	#FFFFFF;}.style2{fill:	#FFFFFF;}.style20{clip-path:	url(#chimney_clipping_path_20_);fill:	#376992;}.style21{stroke:	#2665A3;stroke-miterlimit:	10;fill:	#FFFFFF;}.style22{clip-path:	url(#chimney_clipping_path_21_);fill:	#2665A3;}.style23{clip-path:	url(#chimney_clipping_path_22_);fill:	#376992;}.style24{fill:	#2665A3;}.style25{stroke:	#FFFFFF;stroke-miterlimit:	10;fill:	#376992;}.style26{clip-path:	url(#chimney_clipping_path_23_);fill:	#376992;}.style27{clip-path:	url(#chimney_clipping_path_24_);fill:	#376992;}.style28{clip-path:	url(#chimney_clipping_path_25_);fill:	#376992;}.style29{clip-path:	url(#chimney_clipping_path_26_);fill:	#376992;}.style3{fill:	#376992;}.style4{stroke:	#4C62AD;stroke-miterlimit:	10;fill:	#FFFFFF;}.style5{fill:	#4C62AD;}.style6{stroke:	#2765A3;stroke-miterlimit:	10;fill:	#FFFFFF;}.style7{clip-path:	url(#chimney_clipping_path_8_);fill:	#2765A3;}.style8{clip-path:	url(#chimney_clipping_path_9_);fill:	#2765A3;}.style9{fill:	none;}</style><g><g></g></g><g display="none"><g display="inline"><defs><rect x="-76" y="-116.9" width="452" height="297.6"/></defs><clipPath><use xlink:href="#crop_area" overflow="visible"/></clipPath><g class="style0"><rect x="-73.2" y="-157" transform="matrix(-0.6428 -0.766 0.766 -0.6428 720.6049 33.6111)" width="882.7" height="11.6" class="style1"/><rect x="-82.1" y="-149.5" transform="matrix(-0.6428 -0.766 0.766 -0.6428 700.2536 39.0642)" width="882.7" height="11.6" class="style1"/><rect x="-91" y="-142.1" transform="matrix(-0.6428 -0.766 0.766 -0.6428 679.9036 44.5186)" width="882.7" height="11.6" class="style1"/><rect x="-99.9" y="-134.6" transform="matrix(-0.6428 -0.766 0.766 -0.6428 659.5532 49.973)" width="882.7" height="11.6" class="style1"/><rect x="-108.8" y="-127.1" transform="matrix(-0.6428 -0.766 0.766 -0.6428 639.2034 55.4271)" width="882.7" height="11.6" class="style1"/><rect x="-117.7" y="-119.7" transform="matrix(-0.6428 -0.766 0.766 -0.6428 618.853 60.8812)" width="882.7" height="11.6" class="style1"/><rect x="-126.6" y="-112.2" transform="matrix(-0.6428 -0.766 0.766 -0.6428 598.5024 66.3349)" width="882.7" height="11.6" class="style1"/><rect x="-135.5" y="-104.7" transform="matrix(-0.6428 -0.766 0.766 -0.6428 578.1519 71.7893)" width="882.7" height="11.6" class="style1"/><rect x="-144.4" y="-97.2" transform="matrix(-0.6428 -0.766 0.766 -0.6428 557.8008 77.243)" width="882.7" height="11.6" class="style1"/><rect x="-153.3" y="-89.8" transform="matrix(-0.6428 -0.766 0.766 -0.6428 537.4516 82.6957)" width="882.7" height="11.6" class="style1"/><rect x="-162.2" y="-82.3" transform="matrix(-0.6428 -0.766 0.766 -0.6428 517.1016 88.1494)" width="882.7" height="11.6" class="style1"/><rect x="-171.1" y="-74.8" transform="matrix(-0.6428 -0.766 0.766 -0.6428 496.7509 93.6032)" width="882.7" height="11.6" class="style1"/><rect x="-180" y="-67.4" transform="matrix(-0.6428 -0.766 0.766 -0.6428 476.4005 99.0575)" width="882.7" height="11.6" class="style1"/><rect x="-188.9" y="-59.9" transform="matrix(-0.6428 -0.766 0.766 -0.6428 456.0505 104.5119)" width="882.7" height="11.6" class="style1"/><rect x="-197.8" y="-52.4" transform="matrix(-0.6428 -0.766 0.766 -0.6428 435.7 109.9654)" width="882.7" height="11.6" class="style1"/><rect x="-206.7" y="-44.9" transform="matrix(-0.6428 -0.766 0.766 -0.6428 415.3501 115.4198)" width="882.7" height="11.6" class="style1"/><rect x="-215.7" y="-37.5" transform="matrix(-0.6428 -0.766 0.766 -0.6428 394.9989 120.8737)" width="882.7" height="11.6" class="style1"/><rect x="-224.6" y="-30" transform="matrix(-0.6428 -0.766 0.766 -0.6428 374.6482 126.3275)" width="882.7" height="11.6" class="style1"/><rect x="-233.5" y="-22.5" transform="matrix(-0.6428 -0.766 0.766 -0.6428 354.2977 131.7817)" width="882.7" height="11.6" class="style1"/><rect x="-242.4" y="-15.1" transform="matrix(-0.6428 -0.766 0.766 -0.6428 333.9482 137.2353)" width="882.7" height="11.6" class="style1"/><rect x="-251.3" y="-7.6" transform="matrix(-0.6428 -0.766 0.766 -0.6428 313.5981 142.689)" width="882.7" height="11.6" class="style1"/><rect x="-260.2" y="-0.1" transform="matrix(-0.6428 -0.766 0.766 -0.6428 293.2472 148.1424)" width="882.7" height="11.6" class="style1"/><rect x="-269.1" y="7.4" transform="matrix(-0.6428 -0.766 0.766 -0.6428 272.8975 153.5961)" width="882.7" height="11.6" class="style1"/><rect x="-278" y="14.8" transform="matrix(-0.6428 -0.766 0.766 -0.6428 252.5472 159.0503)" width="882.7" height="11.6" class="style1"/><rect x="-286.9" y="22.3" transform="matrix(-0.6428 -0.766 0.766 -0.6428 232.1972 164.5047)" width="882.7" height="11.6" class="style1"/><rect x="-295.8" y="29.8" transform="matrix(-0.6428 -0.766 0.766 -0.6428 211.8466 169.9584)" width="882.7" height="11.6" class="style1"/><rect x="-304.7" y="37.2" transform="matrix(-0.6428 -0.766 0.766 -0.6428 191.4962 175.4126)" width="882.7" height="11.6" class="style1"/><rect x="-313.6" y="44.7" transform="matrix(-0.6428 -0.766 0.766 -0.6428 171.1452 180.866)" width="882.7" height="11.6" class="style1"/><rect x="-322.5" y="52.2" transform="matrix(-0.6428 -0.766 0.766 -0.6428 150.7943 186.3204)" width="882.7" height="11.6" class="style1"/><rect x="-331.4" y="59.7" transform="matrix(-0.6428 -0.766 0.766 -0.6428 130.4444 191.7745)" width="882.7" height="11.6" class="style1"/><rect x="-340.3" y="67.1" transform="matrix(-0.6428 -0.766 0.766 -0.6428 110.0945 197.2289)" width="882.7" height="11.6" class="style1"/><rect x="-349.2" y="74.6" transform="matrix(-0.6428 -0.766 0.766 -0.6428 89.7449 202.6825)" width="882.7" height="11.6" class="style1"/><rect x="-358.1" y="82.1" transform="matrix(-0.6428 -0.766 0.766 -0.6428 69.3953 208.1351)" width="882.7" height="11.6" class="style1"/><rect x="-367" y="89.5" transform="matrix(-0.6428 -0.766 0.766 -0.6428 49.0443 213.589)" width="882.7" height="11.6" class="style1"/><rect x="-375.9" y="97" transform="matrix(-0.6428 -0.766 0.766 -0.6428 28.6934 219.043)" width="882.7" height="11.6" class="style1"/><rect x="-384.8" y="104.5" transform="matrix(-0.6428 -0.766 0.766 -0.6428 8.3423 224.4973)" width="882.7" height="11.6" class="style1"/><rect x="-393.7" y="112" transform="matrix(-0.6428 -0.766 0.766 -0.6428 -12.0086 229.9508)" width="882.7" height="11.6" class="style1"/><rect x="-402.6" y="119.4" transform="matrix(-0.6428 -0.766 0.766 -0.6428 -32.3585 235.4053)" width="882.7" height="11.6" class="style1"/><rect x="-411.5" y="126.9" transform="matrix(-0.6428 -0.766 0.766 -0.6428 -52.7084 240.8592)" width="882.7" height="11.6" class="style1"/><rect x="-420.4" y="134.4" transform="matrix(-0.6428 -0.766 0.766 -0.6428 -73.0582 246.3132)" width="882.7" height="11.6" class="style1"/><rect x="-429.3" y="141.8" transform="matrix(-0.6428 -0.766 0.766 -0.6428 -93.4089 251.7673)" width="882.7" height="11.6" class="style1"/><rect x="-438.2" y="149.3" transform="matrix(-0.6428 -0.766 0.766 -0.6428 -113.7584 257.2209)" width="882.7" height="11.6" class="style1"/><rect x="-447.1" y="156.8" transform="matrix(-0.6428 -0.766 0.766 -0.6428 -134.108 262.6746)" width="882.7" height="11.6" class="style1"/><rect x="-456.1" y="164.3" transform="matrix(-0.6428 -0.766 0.766 -0.6428 -154.4595 268.1283)" width="882.7" height="11.6" class="style1"/><rect x="-465" y="171.7" transform="matrix(-0.6428 -0.766 0.766 -0.6428 -174.8106 273.5825)" width="882.7" height="11.6" class="style1"/><rect x="-473.9" y="179.2" transform="matrix(-0.6428 -0.766 0.766 -0.6428 -195.1609 279.0368)" width="882.7" height="11.6" class="style1"/><rect x="-482.8" y="186.7" transform="matrix(-0.6428 -0.766 0.766 -0.6428 -215.5109 284.4903)" width="882.7" height="11.6" class="style1"/><rect x="-491.7" y="194.2" transform="matrix(-0.6428 -0.766 0.766 -0.6428 -235.8615 289.944)" width="882.7" height="11.6" class="style1"/><rect x="-500.6" y="201.6" transform="matrix(-0.6428 -0.766 0.766 -0.6428 -256.2113 295.3978)" width="882.7" height="11.6" class="style1"/><rect x="-509.5" y="209.1" transform="matrix(-0.6428 -0.766 0.766 -0.6428 -276.5616 300.8521)" width="882.7" height="11.6" class="style1"/></g></g><rect x="-76" y="-116.9" display="inline" width="452" height="297.6" class="style1"/></g><g display="none"><rect x="-76" y="-6.5" display="inline" width="450.4" height="92" class="style2"/><line display="inline" x1="-7.1" y1="-116.7" x2="-7.1" y2="180.7" class="style1"/><line display="inline" x1="84.8" y1="-116.7" x2="84.8" y2="180.7" class="style1"/><line display="inline" x1="-76" y1="85.2" x2="376" y2="85.2" class="style1"/><line display="inline" x1="-76" y1="-6.8" x2="376" y2="-6.8" class="style1"/></g><g><path d="M73.346 8.791c-0.018-0.066-0.04-0.141-0.065-0.219c-0.086-0.389-0.136-0.596-0.136-0.596 c-0.139-0.52-0.344-1.011-0.606-1.466C71.856 5.3 70.8 4.5 69.5 3.9c-0.353-0.157-0.717-0.325-1.089-0.407 C36.85-3.117 8.8 3.7 8.8 3.695C8.318 3.8 7.8 4 7.4 4.301C6.456 4.8 5.7 5.6 5.2 6.51l0 0 C4.9 7 4.7 7.5 4.6 7.976c0 0-0.068 0.282-0.184 0.814L4.355 8.791C2.159 19.3 1.4 29.4 1.5 38.2 c-0.024 8.8 0.7 18.9 2.9 29.372c0.018 0.1 0 0.1 0.1 0.218c0.086 0.4 0.1 0.6 0.1 0.6 c0.138 0.5 0.3 1 0.6 1.465c0.683 1.2 1.8 2 3 2.609c0.353 0.2 0.7 0.3 1.1 0.4 c31.557 6.6 59.571-0.202 59.571-0.202c0.519-0.138 1.011-0.343 1.465-0.605c0.916-0.529 1.68-1.293 2.209-2.209l0 0 c0.263-0.454 0.468-0.946 0.606-1.465c0 0 0.068-0.282 0.183-0.814l0.019-0.001c2.195-10.483 2.909-20.573 2.885-29.378 C76.255 29.4 75.5 19.3 73.3 8.791z" class="style3"/></g><g><g><path d="M111.925 60.798c-8.331 0-14.351-7.631-14.351-19.042c0-11.832 6.09-19.042 14.001-19.042 c3.71 0 6.4 1.3 8.9 4.2V9.202h8.541v42.354c0 1.8 0.1 4.6 0.4 8.541h-6.721l-0.91-3.92 C119.207 59.3 116.1 60.8 111.9 60.798z M120.537 32.935c-2.24-2.03-4.131-3.081-6.511-3.081 c-4.69 0-7.701 4.201-7.701 11.901c0 7.6 2.9 11.8 7.8 11.761c2.38 0 4.271-1.051 6.441-3.15V32.935z" class="style2"/><path d="M134.883 51.906c0-2.591 1.89-5.11 5.461-6.931c-3.36-2.03-5.111-5.32-5.111-9.591 c0-7.491 5.601-12.742 13.932-12.742c3.5 0 6.4 1 9.2 3.081c1.75-2.311 3.99-3.5 6.721-3.5c0.42 0 0.8 0 1.3 0.07v6.441 c-0.63-0.07-1.19-0.14-1.68-0.14c-1.19 0-2.17 0.21-3.221 0.91c1.12 1.6 1.7 3.8 1.7 6.581c0 7.071-5.18 11.692-13.721 11.7 c-1.54 0-2.871-0.141-3.991-0.42c-1.61 0.629-2.38 1.47-2.38 2.449c0 2.5 3.4 2.2 9.7 2.7 c9.451 0.7 13.4 2.5 13.4 9.521c0 7.211-5.951 11.341-17.222 11.341c-10.291 0-15.542-3.22-15.542-9.171 c0-3.43 2.03-5.32 6.371-6.721C136.423 55.9 134.9 54.4 134.9 51.906z M141.604 63.178c0 2.4 2.7 4.1 7.1 4.1 c6.091 0 9.521-1.959 9.521-4.55c0-2.03-1.61-2.8-4.901-2.94l-8.051-0.42C142.794 60.5 141.6 61.6 141.6 63.178z M149.375 41.195c3.57 0 5.951-2.311 5.951-5.881s-2.45-6.021-6.161-6.021c-3.36 0-5.741 2.38-5.741 6.2 C143.424 39.1 145.7 41.2 149.4 41.195z" class="style2"/><path d="M171.703 9.552h4.41v50.545h-4.41V9.552z" class="style2"/><path d="M204.463 55.267c-3.99 3.711-7.98 5.531-12.461 5.531c-6.021 0-9.871-4.131-9.871-9.802 c0-8.471 7.071-12.251 22.402-14.981v-3.57c0-3.57-3.011-6.021-8.051-6.021c-3.99 0-6.931 1.96-9.101 5.88l-3.361-1.96 c2.871-5.041 6.721-7.491 13.021-7.491c6.931 0 11.8 4.1 11.8 9.591v22.752c0 0.9 0.2 2.6 0.6 4.9h-4.271 C204.814 58.4 204.5 56.8 204.5 55.267z M204.463 39.515c-12.321 2.73-17.991 5.041-17.991 11.3 c0 4.1 2.3 6.5 6.1 6.511c3.99 0 7.631-2.171 11.901-6.511V39.515z" class="style2"/><path d="M214.331 54.776V9.552h4.341v18.692h0.35c3.36-3.64 6.791-5.39 10.991-5.39 c7.491 0 13.1 6.8 13.1 18.902c0 12.111-5.601 18.972-13.092 18.972c-4.2 0-7.631-1.75-10.991-5.391h-0.35l-1.12 4.76h-3.5 C214.331 58.5 214.3 56.7 214.3 54.776z M229.382 57.157c5.881 0 9.381-5.391 9.381-15.402 c0-10.081-3.57-15.472-9.381-15.472c-3.71 0-7.141 2.31-10.711 6.931v17.082C222.171 54.9 225.5 57.2 229.4 57.157z" class="style2"/><path d="M258.711 57.297c4.551 0 7.561-2.87 7.561-6.721c0-4.411-3.43-5.391-9.451-7.631 c-7.42-2.73-11.271-4.831-11.271-10.431s4.55-9.731 11.831-9.731c4.761 0 9 2.3 12.2 6.721l-3.081 2.2 c-2.8-3.71-5.811-5.46-9.871-5.46c-3.99 0-6.58 2.45-6.58 6.021c0 3.9 3.6 4.8 9.7 7.1 c7.28 2.7 11 5 11 10.781c0 6.092-4.901 10.502-12.462 10.502c-5.74 0-10.15-2.311-13.791-7.211l3.22-2.59 C250.8 55.1 254.4 57.3 258.7 57.297z" class="style2"/></g></g><g display="none"><g display="inline"><g><polyline points="146.8,10.8 120.9,-5.5 92.5,28.2" class="style4"/><polyline points="96,26.6 121,-3.1 121,18.9" class="style5"/><polyline display="none" points="93.5,27.2 121,-5.9 121,18.9" class="style5"/></g><g><polyline points="173.5,2.9 147.6,-13.5 119.1,20.3" class="style4"/><polyline points="122.6,18.7 147.6,-11 147.6,11" class="style5"/><polyline display="none" points="120.1,19.3 147.6,-13.9 147.6,11" class="style5"/></g></g><g display="inline"><g><polyline points="50.8,28.8 50.8,17.1 49.3,16.1 47.2,16.9 47.2,26.9" class="style6"/><g><defs><polyline points="50.8,28.8 50.8,17.1 49.3,16.1 47.2,16.9 47.2,26.9"/></defs><clipPath><use xlink:href="#chimney_clipping_path_3_" overflow="visible"/></clipPath><polygon points="47.9,26.7 47.9,17.4 49.1,16.9 49.1,27.9 48.4,26.6" class="style7"/></g></g><g><polyline points="57.5,33.2 57.5,21.5 56,20.5 54,21.3 54,31.3" class="style6"/><g><defs><polyline points="57.5,33.2 57.5,21.5 56,20.5 54,21.3 54,31.3"/></defs><clipPath><use xlink:href="#chimney_clipping_path_2_" overflow="visible"/></clipPath><polygon points="54.6,31.3 54.6,21.8 55.9,21.3 55.9,32.3 54.9,31.2" class="style8"/></g></g><polygon points="62.1,35.7 45.8,25.1 45.8,-0.6 66.1,-0.6 66.1,36.2" class="style9"/></g><g display="inline"><polygon points="15.2,47.4 15.2,36.5 47.7,26.3 62.1,35.7 62.1,47.4" class="style6"/><line x1="47.7" y1="26.3" x2="47.7" y2="47.4" class="style6"/><polygon display="none" points="15.5,37.3 46.9,27.3 46.9,46.9 15.5,46.9" class="style4"/><line display="none" x1="59" y1="34.2" x2="59" y2="46.5" class="style10"/></g><g display="inline"><g><defs><polygon points="16.6,39.1 16.6,45.1 45.9,44.1 45.9,30.8"/></defs><clipPath><use xlink:href="#window_clipping_path_1_" overflow="visible"/></clipPath><polygon points="45.8,30.8 16.6,39.1 16.6,45.1 19.1,45.1 19.1,39.7 45.7,31.4" class="style11"/></g><polygon points="16.9,39.1 16.9,45.1 45.6,43.1 45.6,30.7" class="style12"/></g><g display="inline"><g><g><polygon points="53.5,11.7 53.5,10.1 52,9.1 49.9,9.9 49.9,12.6 52,12.9" class="style6"/><g><defs><polyline points="53.5,11.4 53.5,10.1 52,9.1 49.9,9.9 49.9,12.3"/></defs><clipPath><use xlink:href="#chimney_clipping_path_6_" overflow="visible"/></clipPath><polygon points="50.6,12.1 50.6,10.4 51.8,9.9 51.8,11.7" class="style13"/></g></g><g><polygon points="50.7,14.7 50.7,13.1 49.2,12.1 47.1,12.9 47.1,15.6 49.2,15.9" class="style6"/><g><defs><polyline points="50.7,14.4 50.7,13.1 49.2,12.1 47.1,12.9 47.1,15.3"/></defs><clipPath><use xlink:href="#chimney_clipping_path_1_" overflow="visible"/></clipPath><polygon points="47.8,15.1 47.8,13.4 49.1,12.9 49.1,14.7" class="style14"/></g></g></g><g><g><polygon points="60.5,15.7 60.5,14.1 59,13.1 56.9,13.9 56.9,16.6 59,16.9" class="style6"/><g><defs><polyline points="60.5,15.4 60.5,14.1 59,13.1 56.9,13.9 56.9,16.3"/></defs><clipPath><use xlink:href="#chimney_clipping_path_5_" overflow="visible"/></clipPath><polygon points="57.6,16.1 57.6,14.4 58.8,13.9 58.8,15.7" class="style15"/></g></g><g><polygon points="57.7,18.7 57.7,17.1 56.2,16.1 54.1,16.9 54.1,19.6 56.2,19.9" class="style6"/><g><defs><polyline points="57.7,18.4 57.7,17.1 56.2,16.1 54.1,16.9 54.1,19.3"/></defs><clipPath><use xlink:href="#chimney_clipping_path_4_" overflow="visible"/></clipPath><polygon points="54.8,19.1 54.8,17.4 56.1,16.9 56.1,18.7" class="style16"/></g></g></g></g><g display="inline"><polygon points="63.8,54.4 48.6,54.4 13.4,54.4 13.4,47 48.6,45 63.8,47.2" class="style17"/><line x1="48.6" y1="45" x2="48.6" y2="54.4" class="style18"/><line display="none" x1="60.7" y1="46.9" x2="60.7" y2="54.3" class="style10"/></g></g><g display="none"><g></g><g display="inline"><path d="M28.611 127.188c-17.4-25.398-27.581-56.134-27.581-89.246 c0-29.578 8.123-57.258 22.259-80.933" class="style1"/><path d="M49.09 127.188c17.4-25.398 27.581-56.134 27.581-89.246 c-0.001-29.578-8.123-57.259-22.26-80.933" class="style1"/><path d="M-76.134 49.716C-47.31 19.18-6.455 0.1 38.9 0.1 c51.721 0 97.6 24.8 126.5 63.2" class="style1"/><path d="M-76.135 26.573C-47.311 57.11-6.455 76.2 38.9 76.2 c51.721-0.001 97.641-24.838 126.484-63.236" class="style1"/></g><circle display="inline" cx="10.6" cy="9.7" r="6" class="style1"/><circle display="inline" cx="67.2" cy="9.5" r="6" class="style1"/><circle display="inline" cx="10.4" cy="66.7" r="6" class="style1"/><circle display="inline" cx="67.4" cy="66.7" r="6" class="style1"/><rect x="4.4" y="3.5" display="inline" width="69" height="69" class="style9"/><line display="inline" x1="4.4" y1="-116.7" x2="4.4" y2="180.7" class="style1"/><line display="inline" x1="73.3" y1="-116.7" x2="73.3" y2="180.7" class="style1"/><line display="inline" x1="-76.6" y1="72.5" x2="376" y2="72.5" class="style1"/><line display="inline" x1="-76.6" y1="3.6" x2="377.6" y2="3.6" class="style1"/></g><g display="none"><line x1="-76.1" y1="60.4" x2="375" y2="60.4" class="style1"/><line display="inline" x1="96.8" y1="-116.7" x2="96.8" y2="180.7" class="style1"/></g><g><g><polyline points="50.1,36.1 50.1,24.5 48.2,23.6 43.4,24.9 43.4,35" class="style19"/><g><defs><polyline points="50.1,36.1 50.1,24.5 48.2,23.6 43.4,24.9 43.4,35"/></defs><clipPath><use xlink:href="#chimney_clipping_path_12_" overflow="visible"/></clipPath><polygon points="44.5,34.3 44.5,25.7 48.2,24.8 48.2,35.1 46.5,34.1" class="style20"/></g></g><g display="none"><polyline display="inline" points="58.5,41 58.5,29.4 56.7,28.5 51.9,29.8 51.9,39.9" class="style21"/><g display="inline"><defs><polyline points="58.5,41 58.5,29.4 56.7,28.5 51.9,29.8 51.9,39.9"/></defs><clipPath><use xlink:href="#chimney_clipping_path_11_" overflow="visible"/></clipPath><polygon points="52.5,39.4 52.5,30.4 56.7,29.3 56.7,40 54.9,39" class="style22"/></g></g><g><polyline points="58.4,40.8 58.4,29.2 56.5,28.3 51.7,29.6 51.7,39.7" class="style19"/><g><defs><polyline points="58.4,40.8 58.4,29.2 56.5,28.3 51.7,29.6 51.7,39.7"/></defs><clipPath><use xlink:href="#chimney_clipping_path_7_" overflow="visible"/></clipPath><polygon points="52.8,39 52.8,30.4 56.5,29.5 56.5,39.8 54.8,38.8" class="style23"/></g></g></g><g><polyline points="27.7,35.5 21.9,32.6 13.2,43.3 13.2,43.3 13.2,55 62.9,55 62.9,42.2 47.6,31.9 42.3,33.4 34,28.3 25.3,39" class="style19"/><polyline display="none" points="21.5,40.2 21.8,34.2 15.3,42.3" class="style24"/><polyline points="29.9,37.1 30.4,37.8 15.2,42.8 21.9,34.5 21.9,39.7 29.9,37.2" class="style3"/><polygon points="27,38.9 33.9,30.4 33.7,35.7 42,33.1 42.5,33.8" class="style3"/><line x1="47.6" y1="31.9" x2="47.6" y2="55" class="style19"/><polygon points="13.9,43.9 46.9,32.9 46.9,54 13.9,54" class="style25"/></g><g><polygon points="16.7,46.4 16.7,51.4 43,50.3 43,38.8" class="style2"/><g><defs><polygon points="14.6,45.9 14.6,52.5 45.7,51.4 45.7,36.8"/></defs><clipPath><use xlink:href="#window_clipping_path_2_" overflow="visible"/></clipPath></g></g><g><g><g><polygon points="55.4,15.7 55.4,13.2 53.1,11.8 50,12.9 50,16.9 53.1,17.4" class="style19"/><g><defs><polyline points="55.4,15.2 55.4,13.2 53.1,11.8 50,12.9 50,16.5"/></defs><clipPath><use xlink:href="#chimney_clipping_path_16_" overflow="visible"/></clipPath><polygon points="51,16.1 51,13.6 52.9,12.9 52.9,15.7" class="style26"/></g></g><g><polygon points="50.5,20.9 50.5,18.5 48.2,17 45.1,18.2 45.1,22.1 48.2,22.6" class="style19"/><g><defs><polyline points="50.5,20.5 50.5,18.5 48.2,17 45.1,18.2 45.1,21.7"/></defs><clipPath><use xlink:href="#chimney_clipping_path_15_" overflow="visible"/></clipPath><polygon points="46.1,21.4 46.1,18.9 48,18.1 48,20.9" class="style27"/></g></g></g><g><g><polygon points="64,20.3 64,17.8 61.8,16.4 58.7,17.5 58.7,21.5 61.8,22" class="style19"/><g><defs><polyline points="64,19.8 64,17.8 61.8,16.4 58.7,17.5 58.7,21.1"/></defs><clipPath><use xlink:href="#chimney_clipping_path_14_" overflow="visible"/></clipPath><polygon points="59.7,20.7 59.7,18.2 61.6,17.5 61.6,20.3" class="style28"/></g></g><g><polygon points="59.2,25.5 59.2,23.1 56.9,21.6 53.8,22.8 53.8,26.7 56.9,27.2" class="style19"/><g><defs><polyline points="59.2,25.1 59.2,23.1 56.9,21.6 53.8,22.8 53.8,26.3"/></defs><clipPath><use xlink:href="#chimney_clipping_path_13_" overflow="visible"/></clipPath><polygon points="54.8,26 54.8,23.5 56.7,22.7 56.7,25.5" class="style29"/></g></g></g></g><g display="none"><g display="inline"><line x1="10.4" y1="-3.3" x2="10.4" y2="86.5" class="style1"/></g><g display="inline"><line x1="66.6" y1="-3.3" x2="66.6" y2="86.5" class="style1"/><line x1="49.5" y1="-3.3" x2="49.5" y2="86.5" class="style1"/><line x1="47.4" y1="-3.3" x2="47.4" y2="86.5" class="style1"/></g><g display="inline"><line x1="-21.3" y1="60.2" x2="105.2" y2="60.2" class="style1"/><line x1="-21.3" y1="52.6" x2="105.2" y2="52.6" class="style1"/></g><g display="inline"><line x1="-21.3" y1="50.2" x2="105.2" y2="14.3" class="style1"/><line x1="-21.3" y1="39.6" x2="105.2" y2="3.4" class="style1"/></g><g display="inline"><line x1="-6.2" y1="-1.6" x2="105.2" y2="63.5" class="style1"/><line x1="-6.2" y1="12.2" x2="105.2" y2="77.3" class="style1"/><line x1="14.9" y1="1.7" x2="105.2" y2="53.8" class="style1"/></g></g></svg>