<svg xmlns="http://www.w3.org/2000/svg" xmlns:xlink="http://www.w3.org/1999/xlink" version="1.1" id="Layer_1" x="0px" y="0px" width="20.603px" height="15.839px" viewBox="0 0 20.603 15.839" enable-background="new 0 0 20.603 15.839" xml:space="preserve">
<path fill="#FFFFFF" d="M20.502 8.395c0.035 0 0.1 0 0 0.083c-0.01 0.028-0.035 0.047-0.062 0 c-0.008 0-0.014 0-0.021-0.002c-1.74-0.532-3.891-0.605-4.607-0.63c-0.555 1.218-1.627 1.757-3.314 2.009v0.001 c-0.207 0.03-0.424 0.058-0.648 0.081c0.67 0.4 0.9 1 0.9 2.379c0 1.429-0.02 1.621-0.016 1.9 c0.008 0.5 0.8 0.8 0.8 0.972c-0.031 0.173-0.662 0.146-0.957 0.043c-0.838-0.293-0.754-0.989-0.754-0.989l-0.027-1.91 c0 0 0.057-1.029-0.326-1.029v3.129c0 0.7 0.5 0.9 0.5 1.138c0 0.433-0.873-0.041-1.139-0.312 c-0.408-0.409-0.361-1.279-0.354-1.965c0.01-0.664-0.006-2.117-0.006-2.117l-0.275 0.006c0 0 0.1 3.173-0.146 3.8 c-0.336 0.742-1.35 0.998-1.35 0.658c0-0.227 0.248-0.153 0.387-0.664c0.119-0.433 0.078-3.666 0.078-3.666 s-0.324 0.191-0.324 0.798c0 0.276-0.008 1.86-0.008 2.331c0 0.594-0.842 0.931-1.246 0.931c-0.205 0-0.461-0.01-0.461-0.119 c0-0.274 0.77-0.435 0.77-1.005c0-0.495-0.01-1.768-0.01-1.768s-0.389 0.066-0.941 0.066c-1.396 0-1.84-0.89-2.049-1.389 c-0.273-0.648-0.629-0.954-1.004-1.198C3.613 9.9 3.6 9.7 3.8 9.625c1.236-0.231 1.6 1.4 2.4 1.7 c0.59 0.2 1.3 0.1 1.723-0.139c0.049-0.5 0.41-0.932 0.709-1.158C8.619 10 8.6 10 8.6 10 C6.516 9.8 5.3 9 4.6 7.889C2.453 7.9 1.2 8.3 0.3 8.482C0.229 8.5 0.2 8.5 0.1 8.5 C0.094 8.5 0.1 8.5 0.1 8.533c-0.031 0-0.057-0.02-0.064-0.051C0.01 8.4 0 8.4 0.1 8.4 C0.129 8.4 0.2 8.4 0.3 8.354C1.172 8.1 2.4 7.8 4.6 7.757C4.52 7.6 4.5 7.5 4.4 7.4 C3.574 7.4 1 7.5 0.1 7.718C0.078 7.7 0.1 7.7 0.1 7.721c-0.031 0-0.059-0.021-0.066-0.051 c-0.008-0.036 0.014-0.072 0.049-0.082c0.883-0.217 3.42-0.338 4.318-0.336C4.168 6.7 4.1 6 4.1 5.2 c0-1.351 0.42-1.859 0.986-2.581c-0.434-1.54 0.154-2.592 0.154-2.592s0.908-0.188 2.6 1.041c0.932-0.397 3.412-0.433 4.588-0.088 c0.721-0.478 2.039-1.152 2.57-0.963c0.145 0.2 0.5 0.9 0.2 2.392c0.18 0.3 1.1 1 1.1 3 c-0.014 0.723-0.09 1.334-0.229 1.85c2.238-0.018 3.6 0.2 4.5 0.333c0.035 0 0.1 0 0.1 0.1 c-0.008 0.031-0.035 0.055-0.066 0.055c-0.004 0-0.01 0-0.012-0.002c-0.908-0.167-2.225-0.352-4.479-0.33 c-0.039 0.131-0.084 0.254-0.133 0.375C16.68 7.8 18.8 7.9 20.5 8.395z"/>
</svg>
