<svg xmlns="http://www.w3.org/2000/svg" xmlns:xlink="http://www.w3.org/1999/xlink" version="1.1" id="javaScript" x="0px" y="0px" width="23.988px" height="23.988px" viewBox="0 0 23.988 23.988" enable-background="new 0 0 23.988 23.988" xml:space="preserve">
<path fill="#376991" d="M20.47 20.471c-2.176 2.176-5.168 3.518-8.476 3.518c-3.311 0-6.301-1.342-8.479-3.518 C1.342 18.3 0 15.3 0 11.994s1.342-6.301 3.516-8.477C5.693 1.3 8.7 0 12 0c3.308 0 6.3 1.3 8.5 3.5 c2.174 2.2 3.5 5.2 3.5 8.477S22.644 18.3 20.5 20.5"/>
<path fill="#FFFFFF" d="M11.994 2.021c-5.574 0-10.092 4.52-10.092 10.092c0 5.6 4.5 10.1 10.1 10.1 c5.573 0 10.091-4.518 10.091-10.092C22.085 6.5 17.6 2 12 2.021z M9.54 17.595c-2.305-0.423-2.777-1.254-2.777-2.586 c0-0.193 0.012-0.756 0.012-0.974c0-0.999-0.358-1.537-1.511-1.537H4.93v-0.769h0.333c1.153 0 1.511-0.537 1.511-1.536 c0-0.218-0.012-0.782-0.012-0.975c0-1.332 0.473-2.162 2.777-2.585l0.153 0.652c-1.791 0.462-1.997 0.91-1.997 2.1 c0 0.3 0 0.7 0 0.959c0 1.077-0.512 1.551-1.331 1.808c0.857 0.3 1.3 0.7 1.3 1.8 c0 0.27-0.012 0.703-0.012 0.959c0 1.2 0.2 1.6 2 2.062L9.54 17.595z M19.056 12.498h-0.331 c-1.142 0-1.499 0.538-1.499 1.537c0 0.2 0 0.8 0 0.974c0 1.332-0.476 2.163-2.78 2.586l-0.166-0.652 c1.806-0.463 2.009-0.91 2.009-2.062c0-0.256-0.012-0.689-0.012-0.959c0-1.077 0.512-1.551 1.332-1.806 c-0.859-0.283-1.332-0.73-1.332-1.808c0-0.268 0.012-0.705 0.012-0.959c0-1.152-0.203-1.601-2.009-2.062l0.166-0.652 c2.304 0.4 2.8 1.3 2.8 2.585c0 0.192-0.013 0.757-0.013 0.975c0 1 0.4 1.5 1.5 1.536h0.331V12.498z"/>
</svg>
