<svg xmlns="http://www.w3.org/2000/svg" xmlns:xlink="http://www.w3.org/1999/xlink" version="1.1" id="Layer_1" x="0px" y="0px" width="15.098px" height="12.271px" viewBox="0 0 15.098 12.271" enable-background="new 0 0 15.098 12.271" xml:space="preserve">
<path fill="#FFFFFF" d="M13.553 3.057c0.006 0.1 0 0.3 0 0.4c0 4.094-3.115 8.814-8.812 8.8 c-1.75 0-3.377-0.512-4.748-1.393c0.242 0 0.5 0 0.7 0.043c1.451 0 2.787-0.494 3.848-1.326 c-1.355-0.023-2.5-0.92-2.895-2.15c0.189 0 0.4 0.1 0.6 0.057c0.281 0 0.555-0.039 0.816-0.109 C1.674 7.1 0.6 5.9 0.6 4.355c0-0.016 0-0.027 0-0.039c0.418 0.2 0.9 0.4 1.4 0.4 C1.178 4.1 0.6 3.2 0.6 2.125c0-0.568 0.152-1.1 0.42-1.559c1.527 1.9 3.8 3.1 6.4 3.2 c-0.053-0.227-0.08-0.465-0.08-0.707C7.355 1.4 8.7 0 10.5 0c0.891 0 1.7 0.4 2.3 1 c0.707-0.139 1.369-0.396 1.969-0.752c-0.232 0.723-0.723 1.33-1.363 1.713c0.627-0.072 1.225-0.24 1.779-0.486 C14.682 2.1 14.2 2.6 13.6 3.057z"/>
</svg>
