<svg xmlns="http://www.w3.org/2000/svg" xmlns:xlink="http://www.w3.org/1999/xlink" version="1.1" id="Wordpress" x="0px" y="0px" width="23.988px" height="24.121px" viewBox="0 0 23.988 24.121" enable-background="new 0 0 23.988 24.121" xml:space="preserve">
<path fill="#FFFFFF" d="M20.018 20.15c-2.06 2.06-4.892 3.329-8.023 3.329c-3.134 0-5.964-1.27-8.025-3.329 c-2.058-2.06-3.327-4.894-3.327-8.023s1.27-5.964 3.327-8.023C6.03 2 8.9 0.8 12 0.8 c3.132 0 6 1.3 8 3.329c2.058 2.1 3.3 4.9 3.3 8.023S22.075 18.1 20 20.1"/>
<path fill="#376991" d="M20.471 20.604c-2.176 2.176-5.168 3.518-8.477 3.518c-3.311 0-6.301-1.342-8.479-3.518 C1.342 18.4 0 15.4 0 12.127S1.342 5.8 3.5 3.65c2.178-2.174 5.168-3.516 8.479-3.518c3.309 0 6.3 1.3 8.5 3.5 c2.174 2.2 3.5 5.2 3.5 8.477S22.645 18.4 20.5 20.6 M1.978 12.127c0 4 2.3 7.4 5.6 9.016L2.847 8.1 C2.29 9.3 2 10.7 2 12.1 M12.17 13.001l-3.006 8.735c0.898 0.3 1.8 0.4 2.8 0.4 c1.167 0 2.287-0.201 3.324-0.567c-0.025-0.045-0.05-0.089-0.07-0.139L12.17 13.001z M20.783 7.3 c0.042 0.3 0.1 0.7 0.1 1.03c0 1.018-0.19 2.157-0.761 3.587l-3.061 8.846c2.978-1.737 4.98-4.961 4.98-8.657 C22.011 10.4 21.6 8.7 20.8 7.3 M18.757 11.623c0-1.24-0.446-2.098-0.827-2.763c-0.508-0.827-0.983-1.525-0.983-2.35 c0-0.922 0.698-1.777 1.681-1.777c0.046 0 0.1 0 0.1 0.008c-1.78-1.634-4.153-2.629-6.763-2.629 c-3.5 0-6.577 1.795-8.368 4.515c0.236 0 0.5 0 0.6 0.011c1.047 0 2.669-0.127 2.669-0.127 c0.54-0.032 0.6 0.8 0.1 0.824c0 0-0.54 0.064-1.144 0.099L9.506 18.28l2.19-6.572l-1.561-4.274 c-0.54-0.034-1.05-0.099-1.05-0.099c-0.54-0.031-0.478-0.856 0.063-0.824c0 0 1.7 0.1 2.6 0.1 c1.049 0 2.67-0.127 2.67-0.127c0.54-0.032 0.6 0.8 0.1 0.824c0 0-0.543 0.064-1.146 0.099l3.621 10.765l0.997-3.339 C18.502 13.6 18.8 12.5 18.8 11.6"/>
</svg>
